<?xml version="1.0" encoding="UTF-8"?>
<svg xmlns="http://www.w3.org/2000/svg" xmlns:xlink="http://www.w3.org/1999/xlink" width="200px" height="61px" viewBox="0 0 200 61" version="1.1">
<g id="surface1">
<path style=" stroke:none;fill-rule:nonzero;fill:rgb(93.333333%,69.019608%,13.333333%);fill-opacity:1;" d="M 45.609375 44.347656 L 47.070312 38.398438 L 45.902344 33.589844 L 43.480469 43.558594 L 32.433594 4.992188 L 28.28125 4.992188 L 17.347656 43.558594 L 14.945312 33.609375 L 13.796875 38.332031 L 15.273438 44.347656 L 19.535156 44.347656 L 30.355469 5.609375 L 41.40625 44.347656 Z M 9.457031 10.875 C 8.804688 11.574219 8.1875 12.304688 7.605469 13.066406 L 11.144531 27.503906 L 12.316406 22.71875 Z M 49.722656 27.570312 L 53.304688 12.953125 C 52.71875 12.195312 52.097656 11.46875 51.441406 10.769531 L 48.539062 22.730469 L 49.722656 27.570312 "/>
<path style=" stroke:none;fill-rule:nonzero;fill:rgb(19.215686%,54.509804%,51.372549%);fill-opacity:1;" d="M 20.300781 27.953125 L 21.496094 23.773438 L 19.535156 16.75 L 15.273438 16.75 L 7.59375 48.078125 C 8.175781 48.839844 8.792969 49.570312 9.445312 50.273438 L 17.347656 17.539062 Z M 32.433594 56.105469 L 37.863281 37.148438 L 36.726562 33.164062 L 30.355469 55.488281 L 24.097656 33.089844 L 22.925781 37.207031 L 28.28125 56.105469 Z M 59.3125 30.578125 C 59.3125 38.234375 56.320312 45.199219 51.453125 50.375 C 52.109375 49.679688 52.730469 48.949219 53.316406 48.191406 L 45.609375 16.75 L 41.40625 16.75 L 39.355469 23.941406 L 40.5 27.941406 L 43.480469 17.539062 L 51.453125 50.375 C 46.195312 55.964844 38.75 59.464844 30.5 59.464844 C 14.609375 59.464844 1.683594 46.507812 1.683594 30.578125 C 1.683594 14.652344 14.609375 1.691406 30.5 1.691406 C 46.386719 1.691406 59.3125 14.652344 59.3125 30.578125 Z M 61 30.578125 C 61 13.71875 47.316406 0.00390625 30.5 0.00390625 C 13.683594 0.00390625 0 13.71875 0 30.578125 C 0 47.4375 13.683594 61.15625 30.5 61.15625 C 47.316406 61.15625 61 47.4375 61 30.578125 "/>
<path style=" stroke:none;fill-rule:nonzero;fill:rgb(19.215686%,54.509804%,51.372549%);fill-opacity:1;" d="M 198.234375 40.027344 C 199.214844 40.027344 199.972656 39.269531 199.972656 38.3125 C 199.972656 37.324219 199.214844 36.566406 198.234375 36.566406 C 197.277344 36.566406 196.519531 37.324219 196.519531 38.3125 C 196.519531 39.269531 197.277344 40.027344 198.234375 40.027344 "/>
<path style=" stroke:none;fill-rule:nonzero;fill:rgb(19.215686%,54.509804%,51.372549%);fill-opacity:1;" d="M 180.765625 39.804688 L 183.152344 39.804688 L 183.152344 32.171875 C 183.152344 29.074219 185.117188 26.851562 187.84375 26.851562 C 190.144531 26.851562 192.167969 28.425781 192.167969 31.496094 L 192.167969 39.804688 L 194.554688 39.804688 L 194.554688 30.765625 C 194.554688 26.878906 191.550781 24.625 188.261719 24.625 C 185.792969 24.625 184.050781 25.949219 183.152344 27.441406 L 183.152344 20.09375 L 180.765625 20.09375 Z M 171.671875 40.027344 C 174.875 40.027344 177.542969 38.027344 178.636719 35.242188 L 176.390625 34.707031 C 175.574219 36.535156 173.835938 37.832031 171.671875 37.832031 C 168.695312 37.832031 166.308594 35.382812 166.308594 32.3125 C 166.308594 29.300781 168.636719 26.792969 171.671875 26.792969 C 173.808594 26.792969 175.574219 28.117188 176.390625 29.949219 L 178.636719 29.414062 C 177.542969 26.597656 174.875 24.625 171.671875 24.625 C 167.457031 24.625 164.03125 28.035156 164.03125 32.3125 C 164.03125 36.480469 167.320312 40.027344 171.671875 40.027344 Z M 163.050781 39.71875 L 163.050781 37.410156 C 159.761719 38.421875 158.164062 37.492188 158.164062 35.128906 L 158.191406 26.964844 L 163.023438 26.964844 L 163.023438 24.878906 L 158.191406 24.878906 L 158.191406 20.824219 L 155.832031 20.824219 L 155.832031 24.878906 L 152.742188 24.878906 L 152.742188 26.964844 L 155.832031 26.964844 L 155.804688 35.15625 C 155.804688 39.296875 158.613281 40.875 163.050781 39.71875 Z M 143.667969 38 C 142.097656 38 140.550781 37.269531 140.410156 35.664062 C 140.269531 34.226562 141.367188 32.679688 144.847656 32.652344 L 149.257812 32.652344 C 149.257812 35.609375 146.507812 38 143.667969 38 Z M 143.5 40.027344 C 147.011719 40.027344 148.78125 37.605469 149.257812 36.734375 L 149.257812 39.804688 L 151.535156 39.804688 L 151.535156 29.46875 C 151.535156 26.484375 148.5 24.625 144.875 24.625 C 141.535156 24.625 138.640625 26.230469 138.472656 29.1875 L 140.804688 29.160156 C 141.167969 27.246094 143.109375 26.625 144.933594 26.625 C 147.265625 26.625 149.257812 27.640625 149.257812 29.75 L 149.257812 30.847656 L 144.457031 30.878906 C 139.878906 30.878906 137.96875 32.875 138.023438 35.609375 C 138.082031 38.761719 140.859375 40.027344 143.5 40.027344 "/>
<path style=" stroke:none;fill-rule:nonzero;fill:rgb(19.215686%,54.509804%,51.372549%);fill-opacity:1;" d="M 132.007812 20.09375 L 127.933594 20.09375 L 123.46875 38.761719 L 119.253906 20.09375 L 115.152344 20.09375 L 110.632812 39.804688 L 113.1875 39.804688 L 117.121094 21.332031 L 121.472656 39.804688 L 125.488281 39.804688 L 129.925781 21.304688 L 133.859375 39.804688 L 136.414062 39.804688 L 132.007812 20.09375 "/>
<path style=" stroke:none;fill-rule:nonzero;fill:rgb(93.333333%,69.019608%,13.333333%);fill-opacity:1;" d="M 72.949219 39.804688 L 77.023438 39.804688 L 81.488281 21.136719 L 85.699219 39.804688 L 89.800781 39.804688 L 94.324219 20.09375 L 91.765625 20.09375 L 87.835938 38.5625 L 83.480469 20.09375 L 79.464844 20.09375 L 75.027344 38.59375 L 71.09375 20.09375 L 68.539062 20.09375 L 72.949219 39.804688 "/>
<path style=" stroke:none;fill-rule:nonzero;fill:rgb(93.333333%,69.019608%,13.333333%);fill-opacity:1;" d="M 96.648438 31.300781 C 96.957031 28.820312 99.066406 26.765625 101.875 26.765625 C 104.65625 26.765625 106.703125 28.820312 107.042969 31.300781 Z M 101.902344 40.027344 C 104.765625 40.027344 107.605469 38.421875 108.8125 35.972656 L 106.648438 35.464844 C 105.609375 36.929688 103.8125 37.859375 101.902344 37.859375 C 99.175781 37.859375 96.929688 36 96.648438 33.1875 L 109.402344 33.1875 C 109.511719 32.59375 109.484375 31.890625 109.371094 31.242188 C 108.839844 27.554688 105.75 24.625 101.902344 24.625 C 97.6875 24.625 94.261719 28.035156 94.261719 32.3125 C 94.261719 36.535156 97.605469 40.027344 101.902344 40.027344 "/>
</g>
</svg>
